<svg xmlns="http://www.w3.org/2000/svg" viewBox="0 0 24 24" width="24" height="24">
    <path fill="#EA4335" d="M5.266 9.765A7.077 7.077 0 0 1 12 4.909c1.69 0 3.218.6 4.418 1.582l3.51-3.51C17.842 1.05 15.127 0 12 0 7.33 0 3.317 2.684 1.34 6.59l3.926 3.175Z"/>
    <path fill="#4285F4" d="M23.49 12.275c0-.796-.073-1.564-.205-2.301H12v4.51h6.433a5.57 5.57 0 0 1-2.42 3.655l3.774 2.927c2.207-2.031 3.703-5.025 3.703-8.791Z"/>
    <path fill="#FBBC05" d="M5.266 14.235 1.34 17.41A11.945 11.945 0 0 0 12 24c3.155 0 6.033-1.012 8.214-2.738l-3.774-2.927a7.042 7.042 0 0 1-4.44 1.574 7.075 7.075 0 0 1-6.734-4.674Z"/>
    <path fill="#34A853" d="M1.34 6.59A11.954 11.954 0 0 0 0 12c0 1.933.456 3.76 1.34 5.41l4.81-3.738A7.12 7.12 0 0 1 4.909 12c0-.824.143-1.614.403-2.35L1.34 6.59Z"/>
</svg>
